Coordinates
version=1
nRows=5
nColumns=40
inDegrees=yes

Units are S.I. units (second, meters, Newtons, ...)
If the header above contains a line with 'inDegrees', this indicates whether rotational values are in degrees (yes) or radians (no).

endheader
time	pelvis_tilt	pelvis_list	pelvis_rotation	pelvis_tx	pelvis_ty	pelvis_tz	hip_flexion_r	hip_adduction_r	hip_rotation_r	knee_angle_r	knee_angle_r_beta	ankle_angle_r	subtalar_angle_r	mtp_angle_r	hip_flexion_l	hip_adduction_l	hip_rotation_l	knee_angle_l	knee_angle_l_beta	ankle_angle_l	subtalar_angle_l	mtp_angle_l	lumbar_extension	lumbar_bending	lumbar_rotation	arm_flex_r	arm_add_r	arm_rot_r	elbow_flex_r	pro_sup_r	wrist_flex_r	wrist_dev_r	arm_flex_l	arm_add_l	arm_rot_l	elbow_flex_l	pro_sup_l	wrist_flex_l	wrist_dev_l
     12.43300000	      7.94853812	      6.96107711	     -2.63080152	      0.05169828	      1.31290292	      0.01097710	     23.54960134	    -21.42389845	    -23.59298748	     36.89933100	      0.64401482	    -26.34403907	    -12.77046368	      0.00000000	     68.72308356	    -12.89246871	      0.13070225	     99.99937915	      1.74531842	     -0.94531291	      0.87043412	      0.00000000	    -59.08295119	      0.32173954	    -13.69514331	     54.54637267	    -12.51487580	    -20.88188054	     44.02031874	     87.48288960	      0.00000000	      0.00000000	     58.30624193	     -3.66846723	    -16.71482758	     55.44490990	     87.64734175	      0.00000000	      0.00000000
     12.45000000	      7.77133273	      7.22122736	     -2.54906741	      0.05241904	      1.31280939	      0.01124891	     22.39482915	    -21.21660694	    -23.52243882	     38.46535364	      0.67134707	    -25.86846381	    -14.19170545	      0.00000000	     70.61269189	    -12.62375615	     -1.64624974	     97.94090857	      1.70939133	     -0.68212328	      0.59842633	      0.00000000	    -59.10214809	      0.19610292	    -13.99470363	     54.65533573	    -12.55329238	    -20.86049155	     43.68664510	     87.45733825	      0.00000000	      0.00000000	     58.36471990	     -3.49653887	    -16.83958896	     55.38757748	     87.61295473	      0.00000000	      0.00000000
     12.46700000	      7.69922409	      7.25351199	     -2.67924788	      0.05335439	      1.31306213	      0.01137855	     22.28474386	    -21.02100031	    -22.71715817	     41.86006286	      0.73059592	    -24.43463117	    -16.25241911	      0.00000000	     70.91182967	    -12.34775399	     -3.34068103	     94.89528604	      1.65623519	      0.19585207	      0.83077329	      0.00000000	    -59.33914357	      0.18060281	    -14.08653004	     54.99354773	    -12.72421073	    -20.31111378	     43.31736415	     87.39948740	      0.00000000	      0.00000000	     58.67574555	     -3.54537259	    -16.81868902	     55.24164952	     87.55357595	      0.00000000	      0.00000000
     12.48300000	      7.42827038	      7.41074861	     -3.45526305	      0.05428648	      1.31306752	      0.01179854	     23.82896167	    -20.92974094	    -20.37232315	     46.97701414	      0.81990357	    -22.50107832	    -18.23318809	      0.00000000	     70.04641600	    -12.45223168	     -5.54779281	     90.77502849	      1.58432313	      1.28257299	      1.41047292	      0.00000000	    -59.42294414	     -0.35909086	    -13.99262054	     55.54227506	    -12.99696528	    -19.34751457	     42.82848095	     87.43760068	      0.00000000	      0.00000000	     59.07596524	     -3.77397002	    -16.72625056	     55.05764062	     87.66368204	      0.00000000	      0.00000000
     12.50000000	      7.41353927	      7.05558485	     -4.21597344	      0.05509510	      1.31371675	      0.01202570	     25.58603636	    -20.53861885	    -18.21361769	     52.70467897	      0.91987018	    -20.06527346	    -19.61977289	      0.00000000	     67.95105541	    -12.74035167	     -7.44223460	     85.74603286	      1.49655059	      1.29697484	      1.98945351	      0.00000000	    -59.78331286	     -0.57348652	    -13.43805738	     56.03657445	    -13.17605706	    -18.65281875	     42.62381406	     87.38437886	      0.00000000	      0.00000000	     59.44876537	     -3.95598357	    -16.72455504	     54.96037772	     87.64785776	      0.00000000	      0.00000000
